PathFileType	4	(X/Y/Z)	C:\Users\Basilio\Documents\Thesis Gigler\squatting_fais\c3dfiles\041\SLS_pre_back5\markers_experimental.trc
DataRate	CameraRate	NumFrames	NumMarkers	Units	OrigDataRate	OrigDataStartFrame	OrigNumFrames
200.000000	200.000000	4	64	mm	200.000000	169	1353
Frame#	Time	FHD			LBHD			RBHD			C7			T10			CLAV			LSHO			LUUPA			LMUPA			LDUPA			LLEP			LMEP			LRAD			LUL			LRFIN			RSHO			RUPA1			RMUPA			RDUPA			RLEP			RMEP			RRAD			RUL			RUFIN			LASI			RASI			USACR			LSACR			RSACR			LTHI1			LTHI2			LTHI3			LTHI4			LLFC			LMFC			LTIB1			LTIB2			LTIB3			LTIB4			LLMAL			LMMAL			LHEE			LMT1			LMT2			LMT5			RTHI			RTHI2			RTHI3			RTHI4			RLFC			RMFC			RTIB1			RTIB2			RTIB3			RTIB4			RLMAL			RMMAL			RHEE			RMT1			RMT2			RMT5			*61			*62			*63			
		X1	Y1	Z1	X2	Y2	Z2	X3	Y3	Z3	X4	Y4	Z4	X5	Y5	Z5	X6	Y6	Z6	X7	Y7	Z7	X8	Y8	Z8	X9	Y9	Z9	X10	Y10	Z10	X11	Y11	Z11	X12	Y12	Z12	X13	Y13	Z13	X14	Y14	Z14	X15	Y15	Z15	X16	Y16	Z16	X17	Y17	Z17	X18	Y18	Z18	X19	Y19	Z19	X20	Y20	Z20	X21	Y21	Z21	X22	Y22	Z22	X23	Y23	Z23	X24	Y24	Z24	X25	Y25	Z25	X26	Y26	Z26	X27	Y27	Z27	X28	Y28	Z28	X29	Y29	Z29	X30	Y30	Z30	X31	Y31	Z31	X32	Y32	Z32	X33	Y33	Z33	X34	Y34	Z34	X35	Y35	Z35	X36	Y36	Z36	X37	Y37	Z37	X38	Y38	Z38	X39	Y39	Z39	X40	Y40	Z40	X41	Y41	Z41	X42	Y42	Z42	X43	Y43	Z43	X44	Y44	Z44	X45	Y45	Z45	X46	Y46	Z46	X47	Y47	Z47	X48	Y48	Z48	X49	Y49	Z49	X50	Y50	Z50	X51	Y51	Z51	X52	Y52	Z52	X53	Y53	Z53	X54	Y54	Z54	X55	Y55	Z55	X56	Y56	Z56	X57	Y57	Z57	X58	Y58	Z58	X59	Y59	Z59	X60	Y60	Z60	X61	Y61	Z61	X62	Y62	Z62	X63	Y63	Z63	X64	Y64	Z64	

170	0.845	-160.4550476074219	1764.42333984375	-1121.072021484375	-337.9885864257813	1695.608276367188	-1192.67626953125	-315.3867187500001	1700.133911132813	-1041.127319335938	-376.6939697265626	1549.40625	-1123.893920898438	-396.935272216797	1232.742065429688	-1100.652465820313	-218.5342102050782	1485.360107421875	-1131.50537109375	-306.7650756835938	1525.416870117188	-1301.182983398438	-326.6264953613282	1347.858764648438	-1403.791381835938	-283.6541748046876	1324.141967773438	-1407.75830078125	-324.0510864257813	1284.830810546875	-1433.114135742188	-317.2995910644532	1237.553588867188	-1446.997192382813	-316.2181091308594	1189.481689453125	-1374.69775390625	-132.3200073242188	1029.68359375	-1468.939086914063	-188.9801940917969	1012.807373046875	-1513.488037109375	-82.46746826171876	998.1844482421877	-1516.589111328125	-274.6628417968751	1537.928588867188	-960.0076904296877	-289.2821044921876	1333.350463867188	-851.0637817382815	-239.2263793945313	1331.3056640625	-854.2427978515627	-250.1522674560547	1277.837768554688	-832.313903808594	-233.0838623046876	1236.075927734375	-823.0286254882815	-260.2623291015626	1198.915405273438	-900.7872314453127	-55.53891372680665	1044.113403320313	-880.308044433594	-100.7728500366211	1015.525024414063	-825.5457763671877	3.371514797210694	998.6954345703127	-860.1733398437502	-215.1337127685547	1045.4013671875	-1200.406860351563	-229.3264923095704	1049.101318359375	-971.5191650390627	-400.7220458984376	1120.845947265625	-1096.696044921875	-414.403045654297	1094.228881835938	-1123.246826171875	-420.6431579589845	1096.096313476563	-1069.704223632813	-320.4316101074219	833.5910644531252	-1253.762329101563	-282.6499328613282	759.1724243164064	-1238.173583984375	-235.9563140869141	765.3310546875001	-1228.357543945313	-308.4987792968751	706.0724487304689	-1226.660400390625	-289.3919982910157	526.9349365234376	-1190.754638671875	-292.1898803710938	521.1306152343751	-1070.753295898438	-282.1867370605469	339.1861572265626	-1112.786010742188	-328.1442260742188	294.1367492675782	-1173.667602539063	-292.0192871093751	289.7275085449219	-1145.197265625	-307.0380554199219	217.4126586914063	-1104.288452148438	-371.9035034179688	126.7259292602539	-1137.162109375	-342.1174926757813	137.6245727539063	-1053.813232421875	-441.1817626953126	112.2276458740235	-1097.47802734375	-238.7038879394532	62.86057281494142	-1051.740478515625	-227.0736236572266	55.41098403930665	-1095.584106445313	-270.0168457031251	39.68382644653321	-1152.793823242188	-334.8903198242188	794.1660156250002	-879.946472167969	-291.5954284667969	745.5143432617189	-864.5087890625002	-258.7648620605469	749.9354248046876	-866.5605468750002	-310.3302307128907	662.6260375976564	-869.4962158203127	-314.9319152832032	568.1508178710939	-865.8751220703127	-286.0041198730469	520.5622558593751	-966.8024902343752	-426.061248779297	451.2300415039064	-877.0013427734377	-530.6192626953126	482.6062622070314	-905.3508911132815	-512.8301391601564	443.1863708496095	-888.0587158203127	-535.3147583007814	392.7723693847657	-911.7866821289065	-665.8132934570314	383.4168090820313	-933.367614746094	-612.5059814453126	348.3263854980469	-990.6829223632815	-691.7151489257814	412.1500244140626	-1008.443786621094	-641.6064453125001	208.1942291259766	-958.4753417968752	-659.0400390625001	213.4591522216797	-909.1343383789065	-710.2169189453126	253.0249633789063	-889.803894042969	-4216.922363281251	853.0476684570315	-3944.727783203126	nan	nan	nan	nan	nan	nan	
171	0.85	-160.4325866699219	1764.4345703125	-1121.014892578125	-338.1300048828126	1695.572509765625	-1192.812622070313	-315.2348022460938	1700.098999023438	-1041.176147460938	-376.4994506835938	1549.365356445313	-1123.969482421875	-396.7922363281251	1232.778198242188	-1100.808471679688	-218.4667205810547	1485.43115234375	-1131.612060546875	-306.5093383789063	1525.520385742188	-1301.264038085938	-325.8328247070313	1348.405395507813	-1404.43505859375	-282.5931701660157	1324.882202148438	-1408.528076171875	-322.8211059570313	1285.4453125	-1433.99169921875	-315.7914123535157	1238.346313476563	-1448.13720703125	-315.0635375976563	1190.031372070313	-1376.03125	-130.452392578125	1031.6044921875	-1470.618774414063	-186.4468078613282	1014.285095214844	-1515.230834960938	-79.81758880615236	1000.0224609375	-1518.35107421875	-274.5514526367188	1537.910278320313	-960.211853027344	-287.9606018066407	1333.752075195313	-850.6855468750002	-237.6138763427735	1332.152954101563	-853.908142089844	-248.3117828369141	1278.456665039063	-832.1411132812502	-230.6379089355469	1236.9228515625	-822.8734130859377	-257.7614440917969	1199.340576171875	-900.249938964844	-51.51757812500001	1046.217407226563	-879.936462402344	-96.44683837890628	1017.464721679688	-825.2543945312502	7.518273353576662	1001.296752929688	-859.9393310546877	-215.018783569336	1045.267456054688	-1200.381958007813	-229.3468017578126	1048.966186523438	-971.5545043945315	-400.3884887695314	1120.843505859375	-1097.08056640625	-414.3089904785157	1094.337524414063	-1123.457641601563	-420.7616271972657	1096.175537109375	-1070.030883789063	-320.3612060546876	833.5642089843752	-1253.927001953125	-282.1672058105469	758.8828735351564	-1238.233642578125	-235.8407592773438	765.2798461914064	-1228.578979492188	-308.3975524902344	705.9851074218751	-1226.857055664063	-289.2262268066407	526.9500122070314	-1190.85205078125	-291.6944885253907	521.1013793945314	-1070.91650390625	-282.0987548828126	339.1755371093751	-1113.110595703125	-328.4868774414063	294.6919555664063	-1173.970703125	-292.0034179687501	289.8446655273438	-1145.472412109375	-306.9109191894532	217.4813842773438	-1104.466064453125	-371.9336853027344	126.7265701293946	-1137.2626953125	-342.0807189941407	137.6585845947266	-1053.941528320313	-441.1981811523439	112.2660293579102	-1097.528198242188	-238.6729736328126	62.9237518310547	-1051.765502929688	-227.0528869628907	55.37988662719728	-1095.536987304688	-270.0251464843751	39.59787750244141	-1152.884887695313	-335.8091125488282	794.1743164062502	-880.2695312500002	-292.2543640136719	745.4499511718751	-864.7539062500002	-259.5439453125001	749.7530517578126	-866.7725830078127	-311.5622863769532	662.4151611328126	-869.940368652344	-316.0104064941407	567.9171142578126	-866.0576171875002	-287.2078247070313	520.4600830078126	-967.0832519531252	-427.6170043945314	450.9478759765626	-878.5502929687502	-531.7419433593751	482.5905151367189	-905.6375732421877	-513.8905029296876	443.2188720703126	-888.2097778320315	-536.4663085937501	392.4598999023439	-911.936218261719	-667.1093139648439	383.5099182128907	-933.4607543945315	-613.7388305664064	348.0355529785157	-990.5773925781252	-692.4351806640626	412.4621582031251	-1008.631713867188	-643.6593627929689	207.7649841308594	-958.5542602539065	-661.1787719726564	213.4424133300782	-909.1956176757815	-712.0982666015626	253.2810211181641	-890.357116699219	-4216.979003906251	853.0985107421877	-3944.702148437501	nan	nan	nan	nan	nan	nan	
172	0.855	-160.3672027587891	1764.470458984375	-1121.106323242188	-337.6842346191407	1695.526245117188	-1192.838500976563	-315.1786193847657	1700.089477539063	-1041.272583007813	-376.3030700683594	1549.325317382813	-1124.112915039063	-396.6434020996095	1232.78271484375	-1100.977905273438	-218.2957000732422	1485.34716796875	-1131.673583984375	-306.3286437988282	1525.642700195313	-1301.315673828125	-324.9796752929688	1348.897705078125	-1405.056396484375	-281.6029968261719	1325.622314453125	-1409.23046875	-321.7797546386719	1286.094116210938	-1434.85400390625	-314.2951660156251	1238.985107421875	-1449.148681640625	-313.5957031250001	1190.409912109375	-1377.229614257813	-127.7683944702149	1033.214111328125	-1472.433471679688	-184.0955657958985	1015.925415039063	-1517.141479492188	-77.39288330078126	1002.320007324219	-1520.099487304688	-274.3681030273438	1537.947143554688	-960.479919433594	-286.2341003417969	1334.009399414063	-850.7037353515627	-236.4169464111329	1332.755249023438	-853.602478027344	-246.2026367187501	1279.077270507813	-832.0679931640627	-228.3720245361329	1237.675659179688	-822.5195312500002	-255.1680450439454	1199.662841796875	-899.8064575195315	-47.61012649536134	1048.489501953125	-879.687438964844	-92.34543609619142	1019.509887695313	-824.476989746094	11.97361564636231	1004.183959960938	-859.851989746094	-214.9530944824219	1045.12939453125	-1200.393310546875	-229.3270874023438	1048.838134765625	-971.6468505859377	-400.276336669922	1120.998657226563	-1097.56201171875	-414.112518310547	1094.377685546875	-1123.681518554688	-420.6046447753907	1096.25830078125	-1070.264892578125	-320.2955932617188	833.5354614257815	-1254.057006835938	-282.0839233398438	758.8347778320314	-1238.45361328125	-235.8454895019532	765.2801513671876	-1228.807006835938	-308.2938842773438	705.9022216796876	-1227.191528320313	-288.8765258789063	526.5264892578126	-1191.090209960938	-291.4656066894532	521.0764160156251	-1071.082641601563	-282.0142822265626	339.2126770019532	-1113.455810546875	-328.1761169433594	294.2782897949219	-1174.148071289063	-292.1379089355469	289.7614135742188	-1145.61572265625	-306.8901672363282	217.4849700927735	-1104.720825195313	-371.9877624511719	126.743034362793	-1137.368774414063	-342.0574340820313	137.6868133544922	-1054.070434570313	-441.203582763672	112.2531433105469	-1097.5849609375	-238.7062072753907	63.00647354125978	-1051.683959960938	-227.0250854492188	55.39213180541994	-1095.677612304688	-270.0187377929688	39.48701858520509	-1152.8583984375	-336.5665588378907	794.058776855469	-880.497741699219	-293.2130126953126	745.3720703125001	-865.0352172851565	-260.4040832519532	749.5919799804689	-866.9707031250002	-312.4144287109376	662.3409423828126	-870.2925415039065	-317.1557617187501	567.7451782226564	-866.2774658203127	-288.2459716796876	520.3508911132814	-967.2517089843752	-428.6723937988282	451.0498352050782	-878.6363525390627	-532.7083129882814	482.7320556640626	-905.9085083007815	-515.1538085937501	443.3303222656251	-888.2117309570315	-537.8801269531251	392.6207580566407	-911.7890625000002	-668.4650878906251	383.6951904296876	-933.493591308594	-614.9083862304689	347.7695922851563	-990.4531250000002	-693.2521362304689	412.8168334960939	-1008.875610351563	-645.7833862304689	207.6569213867188	-958.960144042969	-663.5911865234376	213.3988189697266	-909.2285156250002	-714.4946899414064	253.3591918945313	-890.713073730469	-4217.457519531251	853.2756958007815	-3944.761474609376	nan	nan	nan	nan	nan	nan	
173	0.86	-160.1124420166016	1764.50732421875	-1121.213623046875	-337.6037902832032	1695.459594726563	-1192.913330078125	-315.0585021972657	1700.057373046875	-1041.368896484375	-376.1651611328126	1549.2744140625	-1124.27734375	-396.5130920410157	1232.821166992188	-1101.108276367188	-218.0340728759766	1485.295532226563	-1131.723510742188	-305.9848022460938	1525.764404296875	-1301.352294921875	-324.1490478515626	1349.381469726563	-1405.695678710938	-280.6909790039063	1326.307250976563	-1409.984130859375	-320.5706481933594	1286.742431640625	-1435.746459960938	-312.2818908691407	1239.51904296875	-1450.319213867188	-311.7167663574219	1190.902099609375	-1378.639526367188	-125.2401962280274	1034.72607421875	-1473.785888671875	-181.3270416259766	1017.546997070313	-1519.101928710938	-74.55559539794923	1004.213745117188	-1521.79296875	-274.2088623046876	1537.936767578125	-960.715270996094	-284.7923889160157	1334.2724609375	-850.6597290039065	-234.6584625244141	1333.510009765625	-853.7551269531252	-244.451156616211	1279.877563476563	-831.688903808594	-226.130844116211	1238.549682617188	-822.2547607421877	-252.697250366211	1200.1611328125	-899.3110351562502	-43.51728820800782	1050.998046875	-879.3410644531252	-87.97704315185548	1021.441528320313	-823.9919433593752	16.24684715270996	1007.078125	-859.492858886719	-214.9461364746094	1044.99169921875	-1200.405639648438	-229.339584350586	1048.688598632813	-971.6878662109377	-399.9172973632814	1120.86279296875	-1097.6865234375	-413.9952392578126	1094.419921875	-1123.921508789063	-420.3034973144532	1096.352905273438	-1070.405151367188	-320.2840881347657	833.4885253906252	-1254.162841796875	-282.0040588378907	758.7691040039064	-1238.6298828125	-235.7761688232422	765.2227172851564	-1228.943359375	-308.3266601562501	705.9517211914064	-1227.179809570313	-288.8359680175782	526.4999389648439	-1191.256958007813	-291.2093200683594	521.0444946289064	-1071.2392578125	-281.9667663574219	339.2207336425782	-1113.67724609375	-328.1005249023438	294.2423095703126	-1174.437255859375	-292.2725219726563	289.7390441894532	-1145.801391601563	-306.7986450195313	217.4564514160157	-1105.026245117188	-372.0098876953126	126.711784362793	-1137.4638671875	-342.0209350585938	137.7191162109375	-1054.2197265625	-441.1989746093751	112.2630004882813	-1097.642333984375	-238.7384796142579	63.00360488891603	-1051.71240234375	-227.0813446044922	55.3356285095215	-1095.64453125	-269.9725952148438	39.41570281982423	-1152.87255859375	-337.3005676269532	794.0179443359377	-880.7568969726565	-294.1398315429688	745.2593383789064	-865.2849731445315	-261.2909545898438	749.2105102539064	-867.254333496094	-313.5133056640626	662.3056640625001	-870.6029052734377	-318.0783996582032	567.8344116210939	-866.5146484375002	-289.2606811523438	520.1985473632814	-967.5206298828127	-429.5723571777345	451.3240966796876	-877.4912109375002	-533.8666992187501	482.6618652343751	-906.0209960937502	-516.3016357421876	443.2971801757814	-888.284851074219	-538.7108154296876	392.6781311035157	-911.7801513671877	-669.4709472656251	383.6618041992188	-933.6748046875002	-616.2893676757814	347.1754150390626	-990.151550292969	-693.7620239257814	413.0001525878907	-1009.025512695313	-647.8786010742189	207.7817687988282	-958.9104003906252	-665.8119506835939	213.2380828857422	-909.6097412109377	-716.7490844726564	253.8160400390626	-891.2202148437502	-4217.351074218751	853.237976074219	-3944.759277343751	nan	nan	nan	nan	nan	nan	
